<?xml version="1.0" encoding="UTF-8" standalone="no"?>
<svg
   width="96"
   height="96"
   viewBox="0 0 96 96"
   version="1.1"
   id="svg1"
   sodipodi:docname="icon.svg"
   inkscape:version="1.4 (86a8ad7, 2024-10-11)"
   inkscape:export-filename="icon.svg"
   inkscape:export-xdpi="96"
   inkscape:export-ydpi="96"
   xmlns:inkscape="http://www.inkscape.org/namespaces/inkscape"
   xmlns:sodipodi="http://sodipodi.sourceforge.net/DTD/sodipodi-0.dtd"
   xmlns="http://www.w3.org/2000/svg"
   xmlns:svg="http://www.w3.org/2000/svg">
  <defs
     id="defs1" />
  <sodipodi:namedview
     id="namedview1"
     pagecolor="#505050"
     bordercolor="#eeeeee"
     borderopacity="1"
     inkscape:showpageshadow="0"
     inkscape:pageopacity="0"
     inkscape:pagecheckerboard="false"
     inkscape:deskcolor="#505050"
     inkscape:zoom="4.2424963"
     inkscape:cx="95.698375"
     inkscape:cy="63.759632"
     inkscape:window-width="3440"
     inkscape:window-height="1377"
     inkscape:window-x="-8"
     inkscape:window-y="-8"
     inkscape:window-maximized="1"
     inkscape:current-layer="svg1" />
  <path
     style="display:inline;fill:#cc00ff;fill-opacity:1;stroke:#570082;stroke-width:5;stroke-linecap:butt;stroke-linejoin:miter;stroke-dasharray:none;stroke-dashoffset:0;stroke-opacity:1;paint-order:stroke fill markers"
     d="m 37.823796,93.39478 c -0.316065,-0.058 -0.68751,-0.18525 -0.863966,-0.29598 -0.09162,-0.0574 -0.269949,-0.17036 -0.396351,-0.25081 -0.126373,-0.0804 -0.428177,-0.23403 -0.670645,-0.34136 -0.706884,-0.31278 -0.950407,-0.47313 -1.294976,-0.85262 -0.09711,-0.10697 -0.299784,-0.2907 -0.450424,-0.40829 -0.392169,-0.30623 -0.672936,-0.56346 -0.886617,-0.81227 -0.102414,-0.11923 -0.301243,-0.30824 -0.441859,-0.41991 -0.273287,-0.21705 -0.561556,-0.53395 -1.064796,-1.17044 -0.470681,-0.59532 -0.541316,-0.70133 -0.849771,-1.27561 -0.37086,-0.69041 -0.382265,-0.73088 -0.380537,-1.34795 0.0023,-0.81336 0.06585,-1.10756 0.320366,-1.48184 0.07899,-0.11618 0.22982,-0.34575 0.335226,-0.51022 0.105405,-0.16448 0.263575,-0.38169 0.351507,-0.48272 0.08793,-0.10105 0.276171,-0.31715 0.418329,-0.48029 0.364141,-0.41789 0.657797,-0.70759 0.963795,-0.95084 0.145188,-0.11544 0.431997,-0.38182 0.637373,-0.592 0.449965,-0.46051 0.425433,-0.43788 0.733836,-0.67709 0.136663,-0.10605 0.433133,-0.3826 0.658825,-0.61466 0.225674,-0.23205 0.515329,-0.500911 0.643644,-0.597493 0.128292,-0.09651 0.435014,-0.375476 0.681544,-0.6198 0.246524,-0.24432 0.590752,-0.556535 0.764922,-0.693824 0.17418,-0.137246 0.508874,-0.440592 0.743778,-0.673978 0.23489,-0.233399 0.49896,-0.481963 0.586785,-0.55238 0.08782,-0.07044 0.761875,-0.680461 1.49788,-1.355651 0.736006,-0.675203 1.751817,-1.59923 2.257357,-2.05341 0.852723,-0.766074 8.529151,-7.821865 16.438611,-15.109544 1.847659,-1.702404 3.56417,-3.280634 3.814473,-3.507159 0.250285,-0.226521 0.534326,-0.490509 0.631175,-0.586605 0.09686,-0.09605 0.376543,-0.343238 0.621562,-0.549171 0.245026,-0.205923 0.518568,-0.446925 0.607906,-0.535519 0.191881,-0.190288 1.246219,-1.208577 1.784477,-1.723461 0.75958,-0.726578 1.333279,-1.630198 1.573809,-2.47887 0.08443,-0.297962 0.104409,-0.86644 0.03918,-1.115749 -0.152945,-0.584591 -0.513424,-1.274384 -0.965265,-1.84719 -0.09204,-0.116647 -0.235043,-0.31328 -0.317755,-0.436833 -0.08271,-0.123632 -0.213425,-0.280838 -0.290454,-0.349479 -0.07703,-0.06864 -0.287497,-0.293283 -0.467717,-0.499237 -0.647104,-0.739484 -1.190864,-1.289142 -2.37065,-2.396359 -0.424244,-0.398141 -0.837179,-0.796902 -0.917643,-0.886154 -0.0805,-0.08924 -0.269679,-0.2802 -0.420517,-0.42435 -0.150832,-0.144087 -0.369592,-0.374431 -0.486157,-0.511719 -0.286038,-0.336895 -0.496817,-0.556885 -0.945632,-0.98696 -0.208317,-0.199611 -0.549043,-0.542081 -0.757202,-0.761075 -0.208165,-0.218969 -0.446148,-0.46568 -0.52886,-0.548201 -0.0827,-0.08257 -0.386845,-0.402746 -0.675853,-0.711594 -0.69667,-0.744483 -1.315591,-1.384067 -2.171755,-2.2443 -0.388131,-0.389957 -0.815182,-0.821583 -0.949,-0.959159 -0.133823,-0.137565 -0.472469,-0.470011 -0.752563,-0.738773 -0.280086,-0.268749 -0.612079,-0.614393 -0.737744,-0.768117 -0.144038,-0.176176 -0.305815,-0.339057 -0.4377,-0.440609 -0.274558,-0.211454 -0.725276,-0.645024 -0.909048,-0.874472 -0.08053,-0.100586 -0.271985,-0.290339 -0.425416,-0.421789 -0.332693,-0.284951 -0.821737,-0.776814 -0.956964,-0.962431 -0.05333,-0.07319 -0.276592,-0.297893 -0.496086,-0.49925 -0.219529,-0.20135 -0.577004,-0.557065 -0.794434,-0.790466 -0.217418,-0.233398 -0.524463,-0.55914 -0.682299,-0.723896 -0.157822,-0.164725 -0.428531,-0.462421 -0.601543,-0.661493 -0.432465,-0.4976 -0.885502,-0.981673 -1.086328,-1.160731 -0.09239,-0.08243 -0.341717,-0.323881 -0.554093,-0.536685 -0.21235,-0.212801 -0.560898,-0.551111 -0.774518,-0.751819 -0.588593,-0.552972 -1.080292,-1.04165 -1.780657,-1.769712 -0.349397,-0.36322 -0.799711,-0.823445 -1.000652,-1.022713 -0.200944,-0.199256 -0.460672,-0.474635 -0.577177,-0.611938 -0.116504,-0.137246 -0.415074,-0.434957 -0.663496,-0.661493 -0.292218,-0.266444 -0.541484,-0.521992 -0.706052,-0.723807 -0.139928,-0.171564 -0.389075,-0.43553 -0.553712,-0.586603 -0.164619,-0.151037 -0.440181,-0.437544 -0.612325,-0.636617 -0.21281,-0.24613 -0.47538,-0.505524 -0.820434,-0.810585 -0.313647,-0.277292 -0.579124,-0.537063 -0.695117,-0.68017 -0.1152,-0.142104 -0.293873,-0.317216 -0.462625,-0.453303 -0.395952,-0.319342 -0.633834,-0.556521 -0.82914,-0.826734 -0.117468,-0.162525 -0.317261,-0.374552 -0.634992,-0.673977 -0.254972,-0.240243 -0.534854,-0.521085 -0.621963,-0.624042 -0.08713,-0.103029 -0.361032,-0.37869 -0.608688,-0.612696 -0.247676,-0.234003 -0.573422,-0.569137 -0.723906,-0.74471 -0.150487,-0.175572 -0.381306,-0.42308 -0.512966,-0.550019 C 34.22144,13.268041 33.966145,13.002225 33.78575,12.804245 33.605347,12.606264 33.310438,12.292631 33.130392,12.107287 32.747205,11.71283 32.204574,11.055531 32.100024,10.859188 31.852156,10.393704 31.773746,8.946551 31.939515,7.896022 c 0.09323,-0.591058 0.580458,-1.317775 1.34407,-2.004824 0.648183,-0.583183 1.119325,-0.969021 1.75247,-1.435186 0.371437,-0.273465 0.846307,-0.652981 1.110745,-0.887653 0.25405,-0.225458 0.556481,-0.477345 0.672051,-0.559731 0.115545,-0.08243 0.364641,-0.262614 0.553523,-0.400549 0.188851,-0.137884 0.389748,-0.271088 0.446399,-0.295907 0.585033,-0.256338 2.975413,-0.280625 3.679473,-0.03744 0.286229,0.09892 1.101879,0.640059 1.52377,1.01102 0.149641,0.131501 0.301743,0.26077 0.338029,0.287149 0.072,0.05226 0.575338,0.565697 0.85144,0.868471 0.552313,0.605666 0.793563,0.862927 1.219671,1.300594 0.260656,0.267719 0.560677,0.582244 0.666749,0.698943 0.106059,0.116647 0.353236,0.358205 0.54928,0.536689 0.19603,0.17848 0.445087,0.426441 0.553448,0.551033 0.108364,0.124518 0.42148,0.433487 0.695823,0.686446 0.274325,0.252971 0.564683,0.538565 0.645195,0.634661 0.08053,0.09605 0.321442,0.343239 0.53541,0.549172 0.213961,0.205923 0.518154,0.525234 0.675985,0.709563 0.535033,0.624877 1.388018,1.486395 2.150074,2.171598 0.225213,0.202484 0.441863,0.429289 0.610144,0.638722 0.183895,0.228862 0.352047,0.402053 0.569594,0.586609 0.434612,0.368733 0.56467,0.496797 0.836359,0.823507 0.131287,0.157882 0.332231,0.37131 0.44653,0.474285 0.199408,0.179615 0.639968,0.638933 1.017601,1.060875 0.0983,0.109839 0.268373,0.278321 0.377925,0.374432 0.109554,0.09605 0.386887,0.365689 0.616265,0.599089 0.229398,0.233399 0.510061,0.5086 0.62373,0.611571 0.113662,0.103031 0.332156,0.316401 0.485561,0.474271 0.153367,0.157882 0.438395,0.439259 0.633355,0.625271 0.194955,0.185998 0.470007,0.45559 0.611215,0.59909 0.141196,0.143451 0.319137,0.322676 0.39538,0.398171 0.146225,0.144833 0.445877,0.465468 0.956341,1.02344 0.169574,0.185358 0.412587,0.443711 0.540062,0.574139 0.127487,0.130439 0.304046,0.321364 0.39235,0.424349 0.08831,0.10303 0.379999,0.401613 0.648179,0.663646 0.288916,0.282292 0.553374,0.567094 0.649025,0.69893 0.162084,0.223402 0.553126,0.604967 0.929785,0.907238 0.109472,0.08785 0.284309,0.267436 0.388483,0.39902 0.224752,0.283888 0.410728,0.46524 0.837978,0.817084 0.241341,0.198724 0.369556,0.329022 0.536368,0.544959 0.152674,0.197663 0.33968,0.392339 0.616125,0.641387 0.218301,0.196668 0.514141,0.492377 0.657425,0.657133 0.143306,0.164722 0.441076,0.462875 0.661748,0.662494 0.254742,0.230456 0.516534,0.500157 0.717114,0.738828 0.199023,0.236839 0.407406,0.451728 0.563271,0.580913 0.282849,0.234429 0.51063,0.461438 0.80376,0.801025 0.112592,0.130438 0.358074,0.383173 0.545529,0.561639 0.187464,0.178479 0.480503,0.470377 0.651208,0.648644 0.170685,0.178301 0.450272,0.459787 0.621264,0.625574 0.632957,0.613678 0.939739,0.935751 1.401789,1.471606 0.918637,1.065406 1.472625,1.624655 3.177449,3.207627 0.288341,0.267721 0.594422,0.571003 0.680214,0.673977 0.08578,0.10303 0.358266,0.378174 0.605506,0.61156 0.275937,0.260523 0.555125,0.554819 0.723037,0.762255 0.273213,0.337494 0.614874,0.686064 1.087951,1.109898 0.137932,0.123632 0.315567,0.303778 0.394787,0.400475 0.07922,0.09666 0.33423,0.342813 0.56672,0.546917 0.305198,0.267967 0.476143,0.441133 0.61497,0.622978 0.122918,0.161001 0.33926,0.386916 0.599779,0.626286 0.235697,0.216559 0.520843,0.51125 0.676313,0.698945 0.14784,0.17848 0.404227,0.45368 0.569752,0.611572 0.16554,0.157881 0.3719,0.36569 0.458639,0.461788 0.29556,0.32753 0.45961,0.496843 0.811227,0.83729 0.847125,0.820236 2.02103,2.04208 2.343451,2.439129 0.200674,0.247157 0.712734,1.12716 0.794944,1.366195 0.191381,0.556473 0.20248,1.767879 0.02151,2.359136 -0.216688,0.708382 -0.947555,1.68598 -1.983502,2.65305 -0.349742,0.326468 -0.702768,0.656567 -0.784545,0.733558 -0.0818,0.07698 -0.355925,0.326576 -0.609226,0.554658 -0.253283,0.228081 -0.563716,0.515795 -0.689815,0.639358 -0.126103,0.123631 -0.399393,0.372008 -0.607309,0.552097 -0.207936,0.18011 -0.481443,0.432922 -0.607826,0.561864 -0.126371,0.128915 -0.33634,0.324165 -0.466575,0.433894 -0.130252,0.109697 -0.403951,0.356754 -0.60827,0.54896 -0.204324,0.192201 -0.49745,0.461803 -0.651401,0.599092 -0.153942,0.137245 -0.798718,0.730623 -1.432811,1.318501 -0.634094,0.587879 -1.565667,1.447199 -2.070166,1.909591 -0.504499,0.462394 -1.140713,1.04853 -1.413814,1.302519 -0.273097,0.253998 -0.507186,0.471089 -0.520196,0.482453 -0.02036,0.01773 -1.337602,1.233281 -1.397743,1.289789 -0.01228,0.01205 -0.314338,0.290127 -0.671195,0.619044 -0.356846,0.328914 -0.663084,0.611498 -0.680515,0.627981 -0.03867,0.03652 -1.37034,1.266265 -1.415751,1.307336 -0.01767,0.01595 -0.376659,0.343771 -0.797464,0.728198 -0.420807,0.384416 -0.932407,0.844976 -1.136884,1.023442 -0.204477,0.178479 -0.472532,0.428926 -0.595685,0.556531 -0.123146,0.127568 -0.336993,0.325087 -0.475189,0.438853 -0.315835,0.259955 -1.485815,1.329544 -1.998931,1.827415 -0.385404,0.373947 -1.079416,1.005946 -3.201602,2.915566 -0.608519,0.547566 -1.185479,1.077268 -1.282122,1.177124 -0.359917,0.371856 -1.701781,1.630997 -3.66596,3.439997 -0.266071,0.245065 -0.550694,0.50719 -0.632479,0.582514 -0.08179,0.07529 -0.380499,0.346607 -0.663867,0.60285 -0.28335,0.256238 -0.581648,0.533278 -0.662882,0.615668 -0.08125,0.0824 -0.335304,0.30704 -0.564639,0.49923 -0.50592,0.42405 -0.358422,0.28906 -1.93722,1.77283 -0.715512,0.67244 -1.382502,1.30977 -1.482206,1.4163 -0.09973,0.10651 -0.317218,0.30587 -0.483333,0.44297 -0.692971,0.5719 -0.890986,0.74288 -1.00183,0.86506 -0.06429,0.0709 -0.3651,0.35728 -0.668496,0.63654 -0.303394,0.27925 -0.654932,0.60988 -0.781186,0.73475 -0.126256,0.12483 -0.691435,0.64158 -1.255964,1.14826 -0.564524,0.50667 -1.641313,1.48286 -2.392856,2.16932 -2.083382,1.90294 -2.506783,2.25915 -2.969066,2.49787 -0.129252,0.0668 -0.414037,0.23184 -0.632817,0.36679 -0.561177,0.34622 -0.775013,0.42551 -1.327603,0.49218 -0.298901,0.0361 -1.101015,0.028 -1.326247,-0.0135 z M 16.64017,75.580969 c -0.335111,-0.03864 -0.742698,-0.193478 -1.219823,-0.463195 -0.09795,-0.05545 -0.396972,-0.20266 -0.664443,-0.327284 C 13.947165,74.413633 13.772583,74.276071 12.042793,72.652707 10.38281,71.094869 9.8881494,70.415346 9.6233716,69.329198 9.4183265,68.488072 9.495732,67.65452 9.8826707,66.537013 10.062477,66.017705 10.129437,65.922515 10.690392,65.38877 c 0.173143,-0.164759 0.382923,-0.378177 0.466181,-0.474288 0.18149,-0.209503 0.329143,-0.341181 0.670638,-0.59815 0.268871,-0.20234 0.675856,-0.557534 0.675856,-0.589881 0,-0.01064 0.173335,-0.158837 0.385238,-0.329871 0.448316,-0.361964 0.803684,-0.69546 1.142149,-1.07186 0.164618,-0.183054 0.335957,-0.337708 0.539307,-0.486754 0.384287,-0.281652 0.558731,-0.446468 0.786061,-0.742588 0.172529,-0.224749 0.404875,-0.440671 0.823892,-0.765696 0.231089,-0.17926 0.378735,-0.317073 0.577889,-0.539309 0.112739,-0.125758 0.305237,-0.293459 0.498951,-0.434605 0.425984,-0.310302 0.626256,-0.489996 0.843328,-0.756666 0.10452,-0.128453 0.278779,-0.299523 0.406737,-0.399385 0.47221,-0.368596 0.672221,-0.533204 0.759337,-0.624918 0.04964,-0.05226 0.430461,-0.387993 0.846255,-0.746032 0.933012,-0.803416 1.884716,-1.67739 2.487974,-2.28475 0.251592,-0.253327 0.547914,-0.539749 0.658488,-0.636528 0.110593,-0.09683 0.260886,-0.248998 0.333998,-0.338238 0.189964,-0.23184 0.34717,-0.377705 0.65572,-0.608424 0.35101,-0.262473 0.560199,-0.455558 0.759208,-0.700731 0.08855,-0.109095 0.276553,-0.292929 0.417812,-0.408547 0.588993,-0.48215 0.684223,-0.566308 0.792291,-0.70025 0.06235,-0.07725 0.219989,-0.263287 0.350318,-0.41335 0.940678,-1.083237 1.262238,-1.966433 1.116478,-3.066537 -0.05906,-0.445801 -0.09515,-0.568243 -0.273365,-0.927584 -0.410847,-0.828401 -0.824443,-1.341497 -1.934997,-2.400498 -0.273212,-0.260558 -0.61833,-0.608087 -0.766899,-0.772315 -0.148566,-0.164227 -0.435759,-0.455862 -0.638212,-0.648069 -0.202442,-0.192202 -0.469038,-0.473029 -0.592411,-0.624057 -0.123377,-0.151037 -0.39092,-0.431837 -0.594553,-0.62404 -0.203632,-0.192203 -0.521084,-0.512134 -0.705451,-0.710928 -0.184356,-0.198796 -0.492069,-0.518948 -0.683782,-0.71143 -0.19169,-0.192484 -0.471413,-0.479134 -0.621564,-0.637011 -0.15014,-0.15788 -0.496113,-0.500492 -0.76881,-0.761345 -0.272713,-0.260841 -0.564007,-0.552912 -0.647358,-0.649008 -0.08337,-0.09605 -0.373318,-0.379173 -0.644376,-0.62906 -0.2711,-0.249851 -0.563549,-0.536309 -0.649951,-0.636526 -0.08639,-0.100126 -0.384111,-0.392641 -0.661574,-0.64981 -0.277472,-0.25719 -0.563605,-0.537097 -0.635877,-0.622058 -0.07227,-0.08498 -0.311226,-0.327815 -0.531049,-0.539702 -0.219797,-0.211877 -0.530019,-0.526508 -0.689368,-0.699157 -0.159358,-0.172664 -0.405396,-0.432666 -0.546767,-0.57779 -0.141386,-0.145117 -0.45693,-0.488541 -0.701242,-0.763118 -0.244316,-0.274563 -0.559798,-0.62842 -0.701078,-0.786299 -0.141275,-0.157879 -0.57997,-0.591423 -0.974873,-0.963429 -1.379856,-1.299807 -1.447664,-1.372589 -1.997936,-2.144343 -0.687107,-0.963675 -0.8048849,-1.258674 -0.8335762,-2.08783 -0.033445,-0.966208 0.1439622,-1.592489 0.6331792,-2.235468 0.50203,-0.659827 0.892051,-1.0628 1.521602,-1.57216 0.15571,-0.126043 0.356115,-0.309593 0.445341,-0.407972 0.0892,-0.0983 0.332537,-0.313991 0.540682,-0.47915 0.475097,-0.376912 0.613451,-0.498191 0.928111,-0.813583 0.300091,-0.3008 0.71055,-0.592303 1.859138,-1.320423 0.442115,-0.280272 1.43876,-0.405278 2.678728,-0.336008 0.900976,0.0503 1.138074,0.107571 1.538917,0.371693 0.395975,0.260915 0.705237,0.479436 0.863753,0.610361 0.09016,0.07438 0.284809,0.225811 0.432599,0.336325 0.187659,0.140296 0.378389,0.320583 0.632536,0.597847 0.2001,0.218296 0.485971,0.510433 0.635244,0.649145 0.149297,0.13877 0.441724,0.424867 0.649887,0.635891 0.208165,0.211028 0.520402,0.51878 0.693859,0.683883 0.17345,0.165078 0.535399,0.543734 0.80431,0.841416 0.700943,0.775948 1.879913,1.984706 2.746775,2.816149 0.178941,0.171601 0.385377,0.379418 0.458777,0.461803 0.07342,0.08243 0.347171,0.351962 0.608335,0.599075 0.336649,0.318528 0.530945,0.525886 0.667468,0.712289 0.250173,0.341609 0.380037,0.472513 0.782495,0.788664 0.222523,0.174828 0.386259,0.328384 0.496583,0.465771 0.287996,0.35869 0.413724,0.491661 0.635376,0.672066 0.284809,0.23184 0.33638,0.2841 0.75797,0.768528 0.197141,0.226522 0.518938,0.557897 0.71509,0.736377 0.196144,0.178481 0.454282,0.436837 0.573617,0.574127 0.119347,0.137244 0.413811,0.429347 0.654392,0.649022 0.287611,0.262615 0.536036,0.519068 0.725419,0.748862 0.162391,0.197058 0.382534,0.428791 0.504761,0.531356 0.119229,0.09999 0.414838,0.391521 0.656936,0.647735 0.449588,0.475817 0.676671,0.705203 1.645671,1.662423 1.357335,1.340816 1.616481,1.605639 1.948564,1.991264 0.113546,0.131822 0.350588,0.37913 0.526737,0.549444 0.176137,0.170327 0.404365,0.41064 0.507161,0.534051 0.102789,0.123455 0.395404,0.420958 0.65025,0.661222 0.254857,0.240241 0.579954,0.571624 0.722463,0.736381 0.35504,0.410439 0.856549,0.903831 1.707425,1.679764 0.540381,0.492784 0.767729,0.718853 0.912405,0.907271 0.125413,0.16334 0.329429,0.374266 0.584369,0.604244 0.492285,0.444059 0.586652,0.566455 0.845991,1.097205 0.11539,0.236131 0.248981,0.501297 0.296864,0.589257 0.584299,1.072846 0.630612,1.731928 0.205822,2.929248 -0.230281,0.64913 -1.006234,1.79186 -1.434656,2.112812 -0.105212,0.07877 -0.292372,0.268039 -0.454833,0.4598 -0.198181,0.233931 -0.348476,0.381037 -0.532855,0.521511 -0.448312,0.341536 -0.670003,0.541895 -0.8879,0.802521 -0.201557,0.241093 -0.370057,0.387717 -0.864291,0.75212 -0.117273,0.08651 -0.289186,0.25329 -0.42248,0.410018 -0.244798,0.287824 -0.349514,0.38319 -0.847101,0.771648 -0.230703,0.180076 -0.398577,0.338064 -0.557082,0.524192 -0.243375,0.285837 -0.48457,0.510248 -0.787166,0.732484 -0.224445,0.164828 -1.738038,1.5484 -2.27091,2.075831 -0.205706,0.203619 -0.472324,0.442137 -0.592496,0.530085 -0.137239,0.100441 -0.319291,0.273604 -0.48961,0.465695 -0.171878,0.193867 -0.379658,0.391218 -0.567718,0.539218 -0.559601,0.440424 -0.667205,0.536795 -0.852405,0.763376 -0.183281,0.224251 -0.305852,0.334623 -0.755347,0.680215 -0.267989,0.206029 -0.46089,0.392596 -0.6966,0.673722 -0.168957,0.201492 -0.346746,0.358071 -0.742376,0.653796 -0.114891,0.08591 -0.28523,0.235102 -0.378465,0.331575 -0.09327,0.09651 -0.345939,0.32303 -0.561555,0.503479 -0.603768,0.505282 -1.944307,1.739776 -2.570796,2.367438 -0.31015,0.310691 -0.642071,0.623513 -0.73764,0.695097 -0.156939,0.117569 -0.258697,0.223118 -0.554188,0.574682 -0.122495,0.145755 -0.270946,0.276335 -0.65208,0.573579 -0.325204,0.253645 -0.419716,0.342848 -0.623353,0.588363 -0.112129,0.135156 -0.421859,0.409275 -0.980944,0.868061 -0.114161,0.09364 -0.307655,0.284667 -0.430015,0.424367 -0.270025,0.308316 -0.375547,0.406867 -0.655667,0.612133 -0.302127,0.221414 -0.508772,0.40967 -0.689203,0.627878 -0.176217,0.213084 -0.431761,0.442652 -0.831689,0.747088 -0.185201,0.140899 -0.355195,0.301615 -0.515171,0.486755 -0.233623,0.270414 -0.45753,0.471056 -0.928019,0.831686 -0.128523,0.09845 -0.316449,0.27552 -0.417558,0.393337 -0.327009,0.381024 -1.118187,0.891378 -2.243025,1.446915 -0.492319,0.24315 -1.347317,0.347246 -2.119671,0.258077 z"
     id="path1"
     sodipodi:nodetypes="ssssssssssssssssssssssssssssssssssssssssssssssssssssssssssssssssssssssssssssssssssssssssssssssssssssssssssssssssssssssssssssssssssssssssssssssssssssssssssssssssssssssssssssssssssssssssssssssssssssssssssssssssssssssssscssssssssssssssssssssssssssssssssssssssssssssssssssssssssssssssscsssssssssssssssssssssssssssssssssss" />
</svg>
